<mxfile host="Electron" modified="2024-08-31T17:44:08.754Z" agent="Mozilla/5.0 (Windows NT 10.0; Win64; x64) AppleWebKit/537.36 (KHTML, like Gecko) draw.io/22.1.16 Chrome/120.0.6099.109 Electron/28.1.0 Safari/537.36" etag="udDaw0bjTsKgVWvfFxof" version="22.1.16" type="device">
  <diagram name="Page-1" id="-Ry3iSlAWCDxJq_BYXxY">
    <mxGraphModel dx="1195" dy="797" grid="1" gridSize="10" guides="1" tooltips="1" connect="1" arrows="1" fold="1" page="1" pageScale="1" pageWidth="800" pageHeight="500" math="0" shadow="0">
      <root>
        <mxCell id="0" />
        <mxCell id="1" parent="0" />
        <mxCell id="C3kIpUEHoAadtdzjjU6n-1" value="&#39;R&#39;" style="rounded=0;whiteSpace=wrap;html=1;fontFamily=Lucida Console;fillColor=#E1D5E7;" vertex="1" parent="1">
          <mxGeometry x="195" y="40" width="120" height="30" as="geometry" />
        </mxCell>
        <mxCell id="C3kIpUEHoAadtdzjjU6n-2" value="&#39;I&#39;" style="rounded=0;whiteSpace=wrap;html=1;fontFamily=Lucida Console;fillColor=#E1D5E7;" vertex="1" parent="1">
          <mxGeometry x="315" y="40" width="120" height="30" as="geometry" />
        </mxCell>
        <mxCell id="C3kIpUEHoAadtdzjjU6n-3" value="&#39;F&#39;" style="rounded=0;whiteSpace=wrap;html=1;fontFamily=Lucida Console;fillColor=#E1D5E7;" vertex="1" parent="1">
          <mxGeometry x="435" y="40" width="120" height="30" as="geometry" />
        </mxCell>
        <mxCell id="C3kIpUEHoAadtdzjjU6n-4" value="&#39;F&#39;" style="rounded=0;whiteSpace=wrap;html=1;fontFamily=Lucida Console;fillColor=#E1D5E7;" vertex="1" parent="1">
          <mxGeometry x="555" y="40" width="120" height="30" as="geometry" />
        </mxCell>
        <mxCell id="C3kIpUEHoAadtdzjjU6n-5" value="Taille du fichier sur 32-bits" style="rounded=0;whiteSpace=wrap;html=1;fontFamily=Lucida Console;fillColor=#E1D5E7;" vertex="1" parent="1">
          <mxGeometry x="195" y="70" width="480" height="30" as="geometry" />
        </mxCell>
        <mxCell id="C3kIpUEHoAadtdzjjU6n-6" value="&#39;W&#39;" style="rounded=0;whiteSpace=wrap;html=1;fontFamily=Lucida Console;fillColor=#E1D5E7;" vertex="1" parent="1">
          <mxGeometry x="195" y="100" width="120" height="30" as="geometry" />
        </mxCell>
        <mxCell id="C3kIpUEHoAadtdzjjU6n-7" value="&#39;A&#39;" style="rounded=0;whiteSpace=wrap;html=1;fontFamily=Lucida Console;fillColor=#E1D5E7;" vertex="1" parent="1">
          <mxGeometry x="315" y="100" width="120" height="30" as="geometry" />
        </mxCell>
        <mxCell id="C3kIpUEHoAadtdzjjU6n-8" value="&#39;V&#39;" style="rounded=0;whiteSpace=wrap;html=1;fontFamily=Lucida Console;fillColor=#E1D5E7;" vertex="1" parent="1">
          <mxGeometry x="435" y="100" width="120" height="30" as="geometry" />
        </mxCell>
        <mxCell id="C3kIpUEHoAadtdzjjU6n-9" value="&#39;E&#39;" style="rounded=0;whiteSpace=wrap;html=1;fontFamily=Lucida Console;fillColor=#E1D5E7;" vertex="1" parent="1">
          <mxGeometry x="555" y="100" width="120" height="30" as="geometry" />
        </mxCell>
        <mxCell id="C3kIpUEHoAadtdzjjU6n-10" value="&#39;f&#39;" style="rounded=0;whiteSpace=wrap;html=1;fontFamily=Lucida Console;fillColor=#D4E1F5;" vertex="1" parent="1">
          <mxGeometry x="195" y="130" width="120" height="30" as="geometry" />
        </mxCell>
        <mxCell id="C3kIpUEHoAadtdzjjU6n-11" value="&#39;m&#39;" style="rounded=0;whiteSpace=wrap;html=1;fontFamily=Lucida Console;fillColor=#D4E1F5;" vertex="1" parent="1">
          <mxGeometry x="315" y="130" width="120" height="30" as="geometry" />
        </mxCell>
        <mxCell id="C3kIpUEHoAadtdzjjU6n-12" value="&#39;t&#39;" style="rounded=0;whiteSpace=wrap;html=1;fontFamily=Lucida Console;fillColor=#D4E1F5;" vertex="1" parent="1">
          <mxGeometry x="435" y="130" width="120" height="30" as="geometry" />
        </mxCell>
        <mxCell id="C3kIpUEHoAadtdzjjU6n-13" value="&#39; &#39;" style="rounded=0;whiteSpace=wrap;html=1;fontFamily=Lucida Console;fillColor=#D4E1F5;" vertex="1" parent="1">
          <mxGeometry x="555" y="130" width="120" height="30" as="geometry" />
        </mxCell>
        <mxCell id="C3kIpUEHoAadtdzjjU6n-14" value="Taille du chunk. Doit être 16 pour le format PCM" style="rounded=0;whiteSpace=wrap;html=1;fontFamily=Lucida Console;fillColor=#D4E1F5;" vertex="1" parent="1">
          <mxGeometry x="195" y="160" width="480" height="30" as="geometry" />
        </mxCell>
        <mxCell id="C3kIpUEHoAadtdzjjU6n-15" value="Format audio (PCM=1)" style="rounded=0;whiteSpace=wrap;html=1;fontFamily=Lucida Console;fillColor=#D4E1F5;" vertex="1" parent="1">
          <mxGeometry x="195" y="190" width="240" height="30" as="geometry" />
        </mxCell>
        <mxCell id="C3kIpUEHoAadtdzjjU6n-16" value="Nombre de canaux (1,2...)" style="rounded=0;whiteSpace=wrap;html=1;fontFamily=Lucida Console;fillColor=#D4E1F5;" vertex="1" parent="1">
          <mxGeometry x="435" y="190" width="240" height="30" as="geometry" />
        </mxCell>
        <mxCell id="C3kIpUEHoAadtdzjjU6n-17" value="Fréquence d&#39;échantillonnage (p.ex. 44100 Hz)" style="rounded=0;whiteSpace=wrap;html=1;fontFamily=Lucida Console;fillColor=#D4E1F5;" vertex="1" parent="1">
          <mxGeometry x="195" y="220" width="480" height="30" as="geometry" />
        </mxCell>
        <mxCell id="C3kIpUEHoAadtdzjjU6n-18" value="Nombre de bytes par seconde" style="rounded=0;whiteSpace=wrap;html=1;fontFamily=Lucida Console;fillColor=#D4E1F5;" vertex="1" parent="1">
          <mxGeometry x="195" y="250" width="480" height="30" as="geometry" />
        </mxCell>
        <mxCell id="C3kIpUEHoAadtdzjjU6n-19" value="Alignement" style="rounded=0;whiteSpace=wrap;html=1;fontFamily=Lucida Console;fillColor=#D4E1F5;" vertex="1" parent="1">
          <mxGeometry x="195" y="280" width="240" height="30" as="geometry" />
        </mxCell>
        <mxCell id="C3kIpUEHoAadtdzjjU6n-20" value="Nombre de bits par échantillon" style="rounded=0;whiteSpace=wrap;html=1;fontFamily=Lucida Console;fillColor=#D4E1F5;" vertex="1" parent="1">
          <mxGeometry x="435" y="280" width="240" height="30" as="geometry" />
        </mxCell>
        <mxCell id="C3kIpUEHoAadtdzjjU6n-21" value="&#39;d&#39;" style="rounded=0;whiteSpace=wrap;html=1;fontFamily=Lucida Console;fillColor=#D5E8D4;" vertex="1" parent="1">
          <mxGeometry x="195" y="310" width="120" height="30" as="geometry" />
        </mxCell>
        <mxCell id="C3kIpUEHoAadtdzjjU6n-22" value="&#39;a&#39;" style="rounded=0;whiteSpace=wrap;html=1;fontFamily=Lucida Console;fillColor=#D5E8D4;" vertex="1" parent="1">
          <mxGeometry x="315" y="310" width="120" height="30" as="geometry" />
        </mxCell>
        <mxCell id="C3kIpUEHoAadtdzjjU6n-23" value="&#39;t&#39;" style="rounded=0;whiteSpace=wrap;html=1;fontFamily=Lucida Console;fillColor=#D5E8D4;" vertex="1" parent="1">
          <mxGeometry x="435" y="310" width="120" height="30" as="geometry" />
        </mxCell>
        <mxCell id="C3kIpUEHoAadtdzjjU6n-24" value="&#39;a&#39;" style="rounded=0;whiteSpace=wrap;html=1;fontFamily=Lucida Console;fillColor=#D5E8D4;" vertex="1" parent="1">
          <mxGeometry x="555" y="310" width="120" height="30" as="geometry" />
        </mxCell>
        <mxCell id="C3kIpUEHoAadtdzjjU6n-25" value="Nombre de bytes des données brutes" style="rounded=0;whiteSpace=wrap;html=1;fontFamily=Lucida Console;fillColor=#D5E8D4;" vertex="1" parent="1">
          <mxGeometry x="195" y="340" width="480" height="30" as="geometry" />
        </mxCell>
        <mxCell id="C3kIpUEHoAadtdzjjU6n-26" value="Données brutes&lt;br&gt;.&lt;br&gt;." style="rounded=0;whiteSpace=wrap;html=1;fontFamily=Lucida Console;verticalAlign=top;fillColor=#D5E8D4;" vertex="1" parent="1">
          <mxGeometry x="195" y="370" width="480" height="110" as="geometry" />
        </mxCell>
        <mxCell id="C3kIpUEHoAadtdzjjU6n-27" value="" style="endArrow=none;html=1;rounded=0;" edge="1" parent="1">
          <mxGeometry width="50" height="50" relative="1" as="geometry">
            <mxPoint x="195" y="40" as="sourcePoint" />
            <mxPoint x="195" y="20" as="targetPoint" />
          </mxGeometry>
        </mxCell>
        <mxCell id="C3kIpUEHoAadtdzjjU6n-28" value="" style="endArrow=none;html=1;rounded=0;" edge="1" parent="1">
          <mxGeometry width="50" height="50" relative="1" as="geometry">
            <mxPoint x="315" y="40" as="sourcePoint" />
            <mxPoint x="315" y="20" as="targetPoint" />
          </mxGeometry>
        </mxCell>
        <mxCell id="C3kIpUEHoAadtdzjjU6n-29" value="" style="endArrow=none;html=1;rounded=0;" edge="1" parent="1">
          <mxGeometry width="50" height="50" relative="1" as="geometry">
            <mxPoint x="434.77" y="40" as="sourcePoint" />
            <mxPoint x="434.77" y="20" as="targetPoint" />
          </mxGeometry>
        </mxCell>
        <mxCell id="C3kIpUEHoAadtdzjjU6n-30" value="" style="endArrow=none;html=1;rounded=0;" edge="1" parent="1">
          <mxGeometry width="50" height="50" relative="1" as="geometry">
            <mxPoint x="555" y="40" as="sourcePoint" />
            <mxPoint x="555" y="20" as="targetPoint" />
          </mxGeometry>
        </mxCell>
        <mxCell id="C3kIpUEHoAadtdzjjU6n-31" value="" style="endArrow=none;html=1;rounded=0;" edge="1" parent="1">
          <mxGeometry width="50" height="50" relative="1" as="geometry">
            <mxPoint x="675" y="40" as="sourcePoint" />
            <mxPoint x="675" y="20" as="targetPoint" />
          </mxGeometry>
        </mxCell>
        <mxCell id="C3kIpUEHoAadtdzjjU6n-32" value="0x00" style="text;strokeColor=none;align=center;fillColor=none;html=1;verticalAlign=middle;whiteSpace=wrap;rounded=0;fontFamily=Lucida Console;" vertex="1" parent="1">
          <mxGeometry x="225" width="60" height="30" as="geometry" />
        </mxCell>
        <mxCell id="C3kIpUEHoAadtdzjjU6n-33" value="0x01" style="text;strokeColor=none;align=center;fillColor=none;html=1;verticalAlign=middle;whiteSpace=wrap;rounded=0;fontFamily=Lucida Console;" vertex="1" parent="1">
          <mxGeometry x="345" width="60" height="30" as="geometry" />
        </mxCell>
        <mxCell id="C3kIpUEHoAadtdzjjU6n-34" value="0x02" style="text;strokeColor=none;align=center;fillColor=none;html=1;verticalAlign=middle;whiteSpace=wrap;rounded=0;fontFamily=Lucida Console;" vertex="1" parent="1">
          <mxGeometry x="465" width="60" height="30" as="geometry" />
        </mxCell>
        <mxCell id="C3kIpUEHoAadtdzjjU6n-35" value="0x03" style="text;strokeColor=none;align=center;fillColor=none;html=1;verticalAlign=middle;whiteSpace=wrap;rounded=0;fontFamily=Lucida Console;" vertex="1" parent="1">
          <mxGeometry x="585" width="60" height="30" as="geometry" />
        </mxCell>
        <mxCell id="C3kIpUEHoAadtdzjjU6n-36" value="" style="endArrow=none;html=1;rounded=0;" edge="1" parent="1">
          <mxGeometry width="50" height="50" relative="1" as="geometry">
            <mxPoint x="175" y="40" as="sourcePoint" />
            <mxPoint x="195" y="40" as="targetPoint" />
          </mxGeometry>
        </mxCell>
        <mxCell id="C3kIpUEHoAadtdzjjU6n-37" value="" style="endArrow=none;html=1;rounded=0;" edge="1" parent="1">
          <mxGeometry width="50" height="50" relative="1" as="geometry">
            <mxPoint x="175" y="70" as="sourcePoint" />
            <mxPoint x="195" y="70" as="targetPoint" />
          </mxGeometry>
        </mxCell>
        <mxCell id="C3kIpUEHoAadtdzjjU6n-38" value="" style="endArrow=none;html=1;rounded=0;" edge="1" parent="1">
          <mxGeometry width="50" height="50" relative="1" as="geometry">
            <mxPoint x="175" y="100" as="sourcePoint" />
            <mxPoint x="195" y="100" as="targetPoint" />
          </mxGeometry>
        </mxCell>
        <mxCell id="C3kIpUEHoAadtdzjjU6n-39" value="" style="endArrow=none;html=1;rounded=0;" edge="1" parent="1">
          <mxGeometry width="50" height="50" relative="1" as="geometry">
            <mxPoint x="175" y="130" as="sourcePoint" />
            <mxPoint x="195" y="130" as="targetPoint" />
          </mxGeometry>
        </mxCell>
        <mxCell id="C3kIpUEHoAadtdzjjU6n-40" value="" style="endArrow=none;html=1;rounded=0;" edge="1" parent="1">
          <mxGeometry width="50" height="50" relative="1" as="geometry">
            <mxPoint x="175" y="160" as="sourcePoint" />
            <mxPoint x="195" y="160" as="targetPoint" />
          </mxGeometry>
        </mxCell>
        <mxCell id="C3kIpUEHoAadtdzjjU6n-41" value="" style="endArrow=none;html=1;rounded=0;" edge="1" parent="1">
          <mxGeometry width="50" height="50" relative="1" as="geometry">
            <mxPoint x="175" y="190" as="sourcePoint" />
            <mxPoint x="195" y="190" as="targetPoint" />
          </mxGeometry>
        </mxCell>
        <mxCell id="C3kIpUEHoAadtdzjjU6n-42" value="" style="endArrow=none;html=1;rounded=0;" edge="1" parent="1">
          <mxGeometry width="50" height="50" relative="1" as="geometry">
            <mxPoint x="175" y="220" as="sourcePoint" />
            <mxPoint x="195" y="220" as="targetPoint" />
          </mxGeometry>
        </mxCell>
        <mxCell id="C3kIpUEHoAadtdzjjU6n-43" value="" style="endArrow=none;html=1;rounded=0;" edge="1" parent="1">
          <mxGeometry width="50" height="50" relative="1" as="geometry">
            <mxPoint x="175" y="250" as="sourcePoint" />
            <mxPoint x="195" y="250" as="targetPoint" />
          </mxGeometry>
        </mxCell>
        <mxCell id="C3kIpUEHoAadtdzjjU6n-44" value="" style="endArrow=none;html=1;rounded=0;" edge="1" parent="1">
          <mxGeometry width="50" height="50" relative="1" as="geometry">
            <mxPoint x="175" y="280" as="sourcePoint" />
            <mxPoint x="195" y="280" as="targetPoint" />
          </mxGeometry>
        </mxCell>
        <mxCell id="C3kIpUEHoAadtdzjjU6n-45" value="" style="endArrow=none;html=1;rounded=0;" edge="1" parent="1">
          <mxGeometry width="50" height="50" relative="1" as="geometry">
            <mxPoint x="175" y="310" as="sourcePoint" />
            <mxPoint x="195" y="310" as="targetPoint" />
          </mxGeometry>
        </mxCell>
        <mxCell id="C3kIpUEHoAadtdzjjU6n-46" value="" style="endArrow=none;html=1;rounded=0;" edge="1" parent="1">
          <mxGeometry width="50" height="50" relative="1" as="geometry">
            <mxPoint x="175" y="340" as="sourcePoint" />
            <mxPoint x="195" y="340" as="targetPoint" />
          </mxGeometry>
        </mxCell>
        <mxCell id="C3kIpUEHoAadtdzjjU6n-47" value="" style="endArrow=none;html=1;rounded=0;" edge="1" parent="1">
          <mxGeometry width="50" height="50" relative="1" as="geometry">
            <mxPoint x="175" y="370" as="sourcePoint" />
            <mxPoint x="195" y="370" as="targetPoint" />
          </mxGeometry>
        </mxCell>
        <mxCell id="C3kIpUEHoAadtdzjjU6n-49" value="" style="endArrow=none;html=1;rounded=0;" edge="1" parent="1">
          <mxGeometry width="50" height="50" relative="1" as="geometry">
            <mxPoint x="175" y="400" as="sourcePoint" />
            <mxPoint x="195" y="400" as="targetPoint" />
          </mxGeometry>
        </mxCell>
        <mxCell id="C3kIpUEHoAadtdzjjU6n-50" value="" style="endArrow=none;html=1;rounded=0;" edge="1" parent="1">
          <mxGeometry width="50" height="50" relative="1" as="geometry">
            <mxPoint x="175" y="430" as="sourcePoint" />
            <mxPoint x="195" y="430" as="targetPoint" />
          </mxGeometry>
        </mxCell>
        <mxCell id="C3kIpUEHoAadtdzjjU6n-51" value="" style="endArrow=none;html=1;rounded=0;" edge="1" parent="1">
          <mxGeometry width="50" height="50" relative="1" as="geometry">
            <mxPoint x="175" y="460" as="sourcePoint" />
            <mxPoint x="195" y="460" as="targetPoint" />
          </mxGeometry>
        </mxCell>
        <mxCell id="C3kIpUEHoAadtdzjjU6n-52" value="0x0000" style="text;strokeColor=none;align=center;fillColor=none;html=1;verticalAlign=middle;whiteSpace=wrap;rounded=0;fontFamily=Lucida Console;" vertex="1" parent="1">
          <mxGeometry x="125" y="40" width="60" height="30" as="geometry" />
        </mxCell>
        <mxCell id="C3kIpUEHoAadtdzjjU6n-53" value="0x0004" style="text;strokeColor=none;align=center;fillColor=none;html=1;verticalAlign=middle;whiteSpace=wrap;rounded=0;fontFamily=Lucida Console;" vertex="1" parent="1">
          <mxGeometry x="125" y="70" width="60" height="30" as="geometry" />
        </mxCell>
        <mxCell id="C3kIpUEHoAadtdzjjU6n-54" value="0x0008" style="text;strokeColor=none;align=center;fillColor=none;html=1;verticalAlign=middle;whiteSpace=wrap;rounded=0;fontFamily=Lucida Console;" vertex="1" parent="1">
          <mxGeometry x="125" y="100" width="60" height="30" as="geometry" />
        </mxCell>
        <mxCell id="C3kIpUEHoAadtdzjjU6n-55" value="0x000C" style="text;strokeColor=none;align=center;fillColor=none;html=1;verticalAlign=middle;whiteSpace=wrap;rounded=0;fontFamily=Lucida Console;" vertex="1" parent="1">
          <mxGeometry x="125" y="130" width="60" height="30" as="geometry" />
        </mxCell>
        <mxCell id="C3kIpUEHoAadtdzjjU6n-56" value="0x0010" style="text;strokeColor=none;align=center;fillColor=none;html=1;verticalAlign=middle;whiteSpace=wrap;rounded=0;fontFamily=Lucida Console;" vertex="1" parent="1">
          <mxGeometry x="125" y="160" width="60" height="30" as="geometry" />
        </mxCell>
        <mxCell id="C3kIpUEHoAadtdzjjU6n-57" value="0x0014" style="text;strokeColor=none;align=center;fillColor=none;html=1;verticalAlign=middle;whiteSpace=wrap;rounded=0;fontFamily=Lucida Console;" vertex="1" parent="1">
          <mxGeometry x="125" y="190" width="60" height="30" as="geometry" />
        </mxCell>
        <mxCell id="C3kIpUEHoAadtdzjjU6n-58" value="0x0018" style="text;strokeColor=none;align=center;fillColor=none;html=1;verticalAlign=middle;whiteSpace=wrap;rounded=0;fontFamily=Lucida Console;" vertex="1" parent="1">
          <mxGeometry x="125" y="220" width="60" height="30" as="geometry" />
        </mxCell>
        <mxCell id="C3kIpUEHoAadtdzjjU6n-59" value="0x001C" style="text;strokeColor=none;align=center;fillColor=none;html=1;verticalAlign=middle;whiteSpace=wrap;rounded=0;fontFamily=Lucida Console;" vertex="1" parent="1">
          <mxGeometry x="125" y="250" width="60" height="30" as="geometry" />
        </mxCell>
        <mxCell id="C3kIpUEHoAadtdzjjU6n-60" value="0x0020" style="text;strokeColor=none;align=center;fillColor=none;html=1;verticalAlign=middle;whiteSpace=wrap;rounded=0;fontFamily=Lucida Console;" vertex="1" parent="1">
          <mxGeometry x="125" y="280" width="60" height="30" as="geometry" />
        </mxCell>
        <mxCell id="C3kIpUEHoAadtdzjjU6n-61" value="0x0024" style="text;strokeColor=none;align=center;fillColor=none;html=1;verticalAlign=middle;whiteSpace=wrap;rounded=0;fontFamily=Lucida Console;" vertex="1" parent="1">
          <mxGeometry x="125" y="310" width="60" height="30" as="geometry" />
        </mxCell>
        <mxCell id="C3kIpUEHoAadtdzjjU6n-62" value="0x0028" style="text;strokeColor=none;align=center;fillColor=none;html=1;verticalAlign=middle;whiteSpace=wrap;rounded=0;fontFamily=Lucida Console;" vertex="1" parent="1">
          <mxGeometry x="125" y="340" width="60" height="30" as="geometry" />
        </mxCell>
        <mxCell id="C3kIpUEHoAadtdzjjU6n-63" value="0x002C" style="text;strokeColor=none;align=center;fillColor=none;html=1;verticalAlign=middle;whiteSpace=wrap;rounded=0;fontFamily=Lucida Console;" vertex="1" parent="1">
          <mxGeometry x="125" y="370" width="60" height="30" as="geometry" />
        </mxCell>
      </root>
    </mxGraphModel>
  </diagram>
</mxfile>
